<mxfile host="app.diagrams.net" agent="Mozilla/5.0 (Windows NT 10.0; Win64; x64) AppleWebKit/537.36 (KHTML, like Gecko) Chrome/132.0.0.0 YaBrowser/25.2.0.0 Safari/537.36" version="26.2.14">
  <diagram name="Страница — 1" id="cgt4f9JQTIU8gw9iMJT_">
    <mxGraphModel dx="1386" dy="986" grid="1" gridSize="10" guides="1" tooltips="1" connect="1" arrows="1" fold="1" page="1" pageScale="1" pageWidth="827" pageHeight="1169" math="0" shadow="0">
      <root>
        <mxCell id="0" />
        <mxCell id="1" parent="0" />
        <mxCell id="h4NHF7Ot1MqrdLHm9ps6-1" value="&lt;font face=&quot;Georgia&quot;&gt;&lt;span style=&quot;font-size: 14px;&quot;&gt;valid_i&lt;/span&gt;&lt;/font&gt;" style="rounded=0;whiteSpace=wrap;html=1;fillColor=#d5e8d4;strokeColor=#82b366;" parent="1" vertex="1">
          <mxGeometry x="40" y="280" width="80" height="40" as="geometry" />
        </mxCell>
        <mxCell id="h4NHF7Ot1MqrdLHm9ps6-2" value="&lt;font face=&quot;Georgia&quot;&gt;&lt;span style=&quot;font-size: 14px;&quot;&gt;&lt;b&gt;valid_o&lt;/b&gt;&lt;/span&gt;&lt;/font&gt;" style="rounded=0;whiteSpace=wrap;html=1;fillColor=#d5e8d4;strokeColor=#82b366;" parent="1" vertex="1">
          <mxGeometry x="1040" y="330" width="80" height="40" as="geometry" />
        </mxCell>
        <mxCell id="8-dyvMDe_J5ReQ0zXng_-10" style="edgeStyle=orthogonalEdgeStyle;rounded=0;orthogonalLoop=1;jettySize=auto;html=1;exitX=1;exitY=0.5;exitDx=0;exitDy=0;entryX=0;entryY=0.25;entryDx=0;entryDy=0;" edge="1" parent="1" source="h4NHF7Ot1MqrdLHm9ps6-4" target="8-dyvMDe_J5ReQ0zXng_-9">
          <mxGeometry relative="1" as="geometry" />
        </mxCell>
        <mxCell id="h4NHF7Ot1MqrdLHm9ps6-4" value="&lt;font face=&quot;Georgia&quot;&gt;&lt;span style=&quot;font-size: 14px;&quot;&gt;a_i&lt;/span&gt;&lt;/font&gt;" style="rounded=0;whiteSpace=wrap;html=1;fillColor=#d5e8d4;strokeColor=#82b366;" parent="1" vertex="1">
          <mxGeometry x="40" y="360" width="80" height="40" as="geometry" />
        </mxCell>
        <mxCell id="8-dyvMDe_J5ReQ0zXng_-11" style="edgeStyle=orthogonalEdgeStyle;rounded=0;orthogonalLoop=1;jettySize=auto;html=1;exitX=1;exitY=0.5;exitDx=0;exitDy=0;entryX=0;entryY=0.75;entryDx=0;entryDy=0;" edge="1" parent="1" source="h4NHF7Ot1MqrdLHm9ps6-5" target="8-dyvMDe_J5ReQ0zXng_-9">
          <mxGeometry relative="1" as="geometry" />
        </mxCell>
        <mxCell id="h4NHF7Ot1MqrdLHm9ps6-5" value="&lt;font face=&quot;Georgia&quot;&gt;&lt;span style=&quot;font-size: 14px;&quot;&gt;b_i&lt;/span&gt;&lt;/font&gt;" style="rounded=0;whiteSpace=wrap;html=1;fillColor=#d5e8d4;strokeColor=#82b366;" parent="1" vertex="1">
          <mxGeometry x="40" y="440" width="80" height="40" as="geometry" />
        </mxCell>
        <mxCell id="8-dyvMDe_J5ReQ0zXng_-17" style="edgeStyle=orthogonalEdgeStyle;rounded=0;orthogonalLoop=1;jettySize=auto;html=1;exitX=1;exitY=0.25;exitDx=0;exitDy=0;entryX=0;entryY=0.5;entryDx=0;entryDy=0;" edge="1" parent="1" source="h4NHF7Ot1MqrdLHm9ps6-6" target="8-dyvMDe_J5ReQ0zXng_-15">
          <mxGeometry relative="1" as="geometry" />
        </mxCell>
        <mxCell id="8-dyvMDe_J5ReQ0zXng_-19" style="edgeStyle=orthogonalEdgeStyle;rounded=0;orthogonalLoop=1;jettySize=auto;html=1;exitX=1;exitY=0.75;exitDx=0;exitDy=0;entryX=0;entryY=0.75;entryDx=0;entryDy=0;" edge="1" parent="1" source="h4NHF7Ot1MqrdLHm9ps6-6" target="8-dyvMDe_J5ReQ0zXng_-16">
          <mxGeometry relative="1" as="geometry">
            <Array as="points">
              <mxPoint x="160" y="550" />
              <mxPoint x="160" y="568" />
            </Array>
          </mxGeometry>
        </mxCell>
        <mxCell id="h4NHF7Ot1MqrdLHm9ps6-6" value="&lt;font face=&quot;Georgia&quot;&gt;&lt;span style=&quot;font-size: 14px;&quot;&gt;c_i&lt;/span&gt;&lt;/font&gt;" style="rounded=0;whiteSpace=wrap;html=1;fillColor=#d5e8d4;strokeColor=#82b366;" parent="1" vertex="1">
          <mxGeometry x="40" y="520" width="80" height="40" as="geometry" />
        </mxCell>
        <mxCell id="h4NHF7Ot1MqrdLHm9ps6-7" value="&lt;font face=&quot;Georgia&quot;&gt;&lt;span style=&quot;font-size: 14px;&quot;&gt;d_i&lt;/span&gt;&lt;/font&gt;" style="rounded=0;whiteSpace=wrap;html=1;fillColor=#d5e8d4;strokeColor=#82b366;" parent="1" vertex="1">
          <mxGeometry x="40" y="600" width="80" height="40" as="geometry" />
        </mxCell>
        <mxCell id="h4NHF7Ot1MqrdLHm9ps6-8" value="&lt;font face=&quot;Georgia&quot;&gt;&lt;span style=&quot;font-size: 14px;&quot;&gt;&lt;b&gt;q_o&lt;/b&gt;&lt;/span&gt;&lt;/font&gt;" style="rounded=0;whiteSpace=wrap;html=1;fillColor=#d5e8d4;strokeColor=#82b366;" parent="1" vertex="1">
          <mxGeometry x="1040" y="505" width="80" height="40" as="geometry" />
        </mxCell>
        <mxCell id="8-dyvMDe_J5ReQ0zXng_-27" style="edgeStyle=orthogonalEdgeStyle;rounded=0;orthogonalLoop=1;jettySize=auto;html=1;exitX=1;exitY=0.5;exitDx=0;exitDy=0;entryX=0;entryY=0.5;entryDx=0;entryDy=0;" edge="1" parent="1" source="h4NHF7Ot1MqrdLHm9ps6-9" target="8-dyvMDe_J5ReQ0zXng_-7">
          <mxGeometry relative="1" as="geometry" />
        </mxCell>
        <mxCell id="8-dyvMDe_J5ReQ0zXng_-54" style="edgeStyle=orthogonalEdgeStyle;rounded=0;orthogonalLoop=1;jettySize=auto;html=1;exitDx=0;exitDy=0;entryX=0;entryY=0.5;entryDx=0;entryDy=0;" edge="1" parent="1" source="8-dyvMDe_J5ReQ0zXng_-60" target="8-dyvMDe_J5ReQ0zXng_-35">
          <mxGeometry relative="1" as="geometry" />
        </mxCell>
        <mxCell id="h4NHF7Ot1MqrdLHm9ps6-9" value="&lt;font face=&quot;Georgia&quot;&gt;&lt;span style=&quot;font-size: 14px;&quot;&gt;clk_i&lt;/span&gt;&lt;/font&gt;" style="rounded=0;whiteSpace=wrap;html=1;fillColor=#d5e8d4;strokeColor=#82b366;" parent="1" vertex="1">
          <mxGeometry x="40" y="200" width="80" height="40" as="geometry" />
        </mxCell>
        <mxCell id="8-dyvMDe_J5ReQ0zXng_-32" style="edgeStyle=orthogonalEdgeStyle;rounded=0;orthogonalLoop=1;jettySize=auto;html=1;exitX=1;exitY=0.5;exitDx=0;exitDy=0;entryX=0.5;entryY=1;entryDx=0;entryDy=0;" edge="1" parent="1" source="h4NHF7Ot1MqrdLHm9ps6-10" target="8-dyvMDe_J5ReQ0zXng_-2">
          <mxGeometry relative="1" as="geometry" />
        </mxCell>
        <mxCell id="8-dyvMDe_J5ReQ0zXng_-55" style="edgeStyle=orthogonalEdgeStyle;rounded=0;orthogonalLoop=1;jettySize=auto;html=1;exitDx=0;exitDy=0;entryX=0.5;entryY=1;entryDx=0;entryDy=0;" edge="1" parent="1" source="8-dyvMDe_J5ReQ0zXng_-61" target="8-dyvMDe_J5ReQ0zXng_-34">
          <mxGeometry relative="1" as="geometry" />
        </mxCell>
        <mxCell id="h4NHF7Ot1MqrdLHm9ps6-10" value="&lt;font face=&quot;Georgia&quot;&gt;&lt;span style=&quot;font-size: 14px;&quot;&gt;rstn_i&lt;/span&gt;&lt;/font&gt;" style="rounded=0;whiteSpace=wrap;html=1;fillColor=#d5e8d4;strokeColor=#82b366;" parent="1" vertex="1">
          <mxGeometry x="40" y="680" width="80" height="40" as="geometry" />
        </mxCell>
        <mxCell id="h4NHF7Ot1MqrdLHm9ps6-11" style="edgeStyle=orthogonalEdgeStyle;rounded=0;orthogonalLoop=1;jettySize=auto;html=1;exitX=0.5;exitY=1;exitDx=0;exitDy=0;" parent="1" source="h4NHF7Ot1MqrdLHm9ps6-8" target="h4NHF7Ot1MqrdLHm9ps6-8" edge="1">
          <mxGeometry relative="1" as="geometry" />
        </mxCell>
        <mxCell id="8-dyvMDe_J5ReQ0zXng_-9" value="&lt;font style=&quot;font-size: 32px;&quot;&gt;+&lt;/font&gt;" style="rounded=0;whiteSpace=wrap;html=1;" vertex="1" parent="1">
          <mxGeometry x="290" y="370" width="70" height="100" as="geometry" />
        </mxCell>
        <mxCell id="8-dyvMDe_J5ReQ0zXng_-2" value="" style="rounded=0;whiteSpace=wrap;html=1;" vertex="1" parent="1">
          <mxGeometry x="440" y="320" width="100" height="320" as="geometry" />
        </mxCell>
        <mxCell id="8-dyvMDe_J5ReQ0zXng_-7" value="" style="triangle;whiteSpace=wrap;html=1;rotation=90;" vertex="1" parent="1">
          <mxGeometry x="475" y="300" width="30" height="70" as="geometry" />
        </mxCell>
        <mxCell id="8-dyvMDe_J5ReQ0zXng_-13" style="edgeStyle=orthogonalEdgeStyle;rounded=0;orthogonalLoop=1;jettySize=auto;html=1;exitX=1;exitY=0.5;exitDx=0;exitDy=0;" edge="1" parent="1" source="h4NHF7Ot1MqrdLHm9ps6-7">
          <mxGeometry relative="1" as="geometry">
            <mxPoint x="440" y="620" as="targetPoint" />
          </mxGeometry>
        </mxCell>
        <mxCell id="8-dyvMDe_J5ReQ0zXng_-20" style="edgeStyle=orthogonalEdgeStyle;rounded=0;orthogonalLoop=1;jettySize=auto;html=1;exitX=1;exitY=0.5;exitDx=0;exitDy=0;entryX=0;entryY=0.25;entryDx=0;entryDy=0;" edge="1" parent="1" source="8-dyvMDe_J5ReQ0zXng_-15" target="8-dyvMDe_J5ReQ0zXng_-16">
          <mxGeometry relative="1" as="geometry" />
        </mxCell>
        <mxCell id="8-dyvMDe_J5ReQ0zXng_-15" value="SLL(1)" style="rounded=0;whiteSpace=wrap;html=1;" vertex="1" parent="1">
          <mxGeometry x="180" y="490" width="60" height="50" as="geometry" />
        </mxCell>
        <mxCell id="8-dyvMDe_J5ReQ0zXng_-16" value="&lt;font style=&quot;font-size: 32px;&quot;&gt;+&lt;/font&gt;" style="rounded=0;whiteSpace=wrap;html=1;" vertex="1" parent="1">
          <mxGeometry x="300" y="500" width="60" height="90" as="geometry" />
        </mxCell>
        <mxCell id="8-dyvMDe_J5ReQ0zXng_-26" value="" style="group" vertex="1" connectable="0" parent="1">
          <mxGeometry x="260" y="530" width="20" height="30" as="geometry" />
        </mxCell>
        <mxCell id="8-dyvMDe_J5ReQ0zXng_-23" value="&#39;b1" style="text;html=1;align=center;verticalAlign=middle;whiteSpace=wrap;rounded=0;" vertex="1" parent="8-dyvMDe_J5ReQ0zXng_-26">
          <mxGeometry width="20" height="30" as="geometry" />
        </mxCell>
        <mxCell id="8-dyvMDe_J5ReQ0zXng_-24" value="" style="endArrow=classic;html=1;rounded=0;entryX=0;entryY=0.5;entryDx=0;entryDy=0;exitX=1;exitY=0.5;exitDx=0;exitDy=0;" edge="1" parent="8-dyvMDe_J5ReQ0zXng_-26" source="8-dyvMDe_J5ReQ0zXng_-23" target="8-dyvMDe_J5ReQ0zXng_-16">
          <mxGeometry width="50" height="50" relative="1" as="geometry">
            <mxPoint x="-54" y="20" as="sourcePoint" />
            <mxPoint x="30" y="15" as="targetPoint" />
          </mxGeometry>
        </mxCell>
        <mxCell id="8-dyvMDe_J5ReQ0zXng_-28" style="edgeStyle=orthogonalEdgeStyle;rounded=0;orthogonalLoop=1;jettySize=auto;html=1;exitX=1;exitY=0.5;exitDx=0;exitDy=0;entryX=-0.004;entryY=0.313;entryDx=0;entryDy=0;entryPerimeter=0;" edge="1" parent="1" source="8-dyvMDe_J5ReQ0zXng_-9" target="8-dyvMDe_J5ReQ0zXng_-2">
          <mxGeometry relative="1" as="geometry" />
        </mxCell>
        <mxCell id="8-dyvMDe_J5ReQ0zXng_-29" style="edgeStyle=orthogonalEdgeStyle;rounded=0;orthogonalLoop=1;jettySize=auto;html=1;exitX=1;exitY=0.5;exitDx=0;exitDy=0;entryX=-0.007;entryY=0.703;entryDx=0;entryDy=0;entryPerimeter=0;" edge="1" parent="1" source="8-dyvMDe_J5ReQ0zXng_-16" target="8-dyvMDe_J5ReQ0zXng_-2">
          <mxGeometry relative="1" as="geometry" />
        </mxCell>
        <mxCell id="8-dyvMDe_J5ReQ0zXng_-30" style="edgeStyle=orthogonalEdgeStyle;rounded=0;orthogonalLoop=1;jettySize=auto;html=1;exitX=1;exitY=0.5;exitDx=0;exitDy=0;entryX=-0.013;entryY=0.083;entryDx=0;entryDy=0;entryPerimeter=0;" edge="1" parent="1" source="h4NHF7Ot1MqrdLHm9ps6-1" target="8-dyvMDe_J5ReQ0zXng_-2">
          <mxGeometry relative="1" as="geometry" />
        </mxCell>
        <mxCell id="8-dyvMDe_J5ReQ0zXng_-33" value="&lt;font style=&quot;font-size: 20px;&quot;&gt;rstn&lt;/font&gt;" style="text;html=1;align=center;verticalAlign=middle;whiteSpace=wrap;rounded=0;" vertex="1" parent="1">
          <mxGeometry x="460" y="610" width="60" height="30" as="geometry" />
        </mxCell>
        <mxCell id="8-dyvMDe_J5ReQ0zXng_-37" value="" style="endArrow=classic;html=1;rounded=0;exitX=1.002;exitY=0.092;exitDx=0;exitDy=0;exitPerimeter=0;entryX=-0.017;entryY=0.093;entryDx=0;entryDy=0;entryPerimeter=0;" edge="1" parent="1" source="8-dyvMDe_J5ReQ0zXng_-2" target="8-dyvMDe_J5ReQ0zXng_-34">
          <mxGeometry width="50" height="50" relative="1" as="geometry">
            <mxPoint x="570" y="450" as="sourcePoint" />
            <mxPoint x="620" y="400" as="targetPoint" />
          </mxGeometry>
        </mxCell>
        <mxCell id="8-dyvMDe_J5ReQ0zXng_-38" value="" style="group" vertex="1" connectable="0" parent="1">
          <mxGeometry x="715" y="320" width="100" height="320" as="geometry" />
        </mxCell>
        <mxCell id="8-dyvMDe_J5ReQ0zXng_-34" value="" style="rounded=0;whiteSpace=wrap;html=1;" vertex="1" parent="8-dyvMDe_J5ReQ0zXng_-38">
          <mxGeometry width="100" height="320" as="geometry" />
        </mxCell>
        <mxCell id="8-dyvMDe_J5ReQ0zXng_-35" value="" style="triangle;whiteSpace=wrap;html=1;rotation=90;" vertex="1" parent="8-dyvMDe_J5ReQ0zXng_-38">
          <mxGeometry x="35" y="-20" width="30" height="70" as="geometry" />
        </mxCell>
        <mxCell id="8-dyvMDe_J5ReQ0zXng_-56" value="&lt;font style=&quot;font-size: 20px;&quot;&gt;rstn&lt;/font&gt;" style="text;html=1;align=center;verticalAlign=middle;whiteSpace=wrap;rounded=0;" vertex="1" parent="8-dyvMDe_J5ReQ0zXng_-38">
          <mxGeometry x="20" y="290" width="60" height="30" as="geometry" />
        </mxCell>
        <mxCell id="8-dyvMDe_J5ReQ0zXng_-39" value="&lt;span style=&quot;font-size: 32px;&quot;&gt;x&lt;/span&gt;" style="rounded=0;whiteSpace=wrap;html=1;" vertex="1" parent="1">
          <mxGeometry x="600" y="420" width="70" height="100" as="geometry" />
        </mxCell>
        <mxCell id="8-dyvMDe_J5ReQ0zXng_-40" value="" style="endArrow=classic;html=1;rounded=0;entryX=0;entryY=0.25;entryDx=0;entryDy=0;exitX=0.994;exitY=0.312;exitDx=0;exitDy=0;exitPerimeter=0;" edge="1" parent="1" source="8-dyvMDe_J5ReQ0zXng_-2" target="8-dyvMDe_J5ReQ0zXng_-39">
          <mxGeometry width="50" height="50" relative="1" as="geometry">
            <mxPoint x="450" y="520" as="sourcePoint" />
            <mxPoint x="500" y="470" as="targetPoint" />
            <Array as="points">
              <mxPoint x="580" y="420" />
              <mxPoint x="580" y="445" />
            </Array>
          </mxGeometry>
        </mxCell>
        <mxCell id="8-dyvMDe_J5ReQ0zXng_-42" value="" style="endArrow=classic;html=1;rounded=0;entryX=0;entryY=0.801;entryDx=0;entryDy=0;exitX=0.994;exitY=0.312;exitDx=0;exitDy=0;exitPerimeter=0;entryPerimeter=0;" edge="1" parent="1" target="8-dyvMDe_J5ReQ0zXng_-39">
          <mxGeometry width="50" height="50" relative="1" as="geometry">
            <mxPoint x="540" y="540" as="sourcePoint" />
            <mxPoint x="601" y="565" as="targetPoint" />
            <Array as="points">
              <mxPoint x="581" y="540" />
              <mxPoint x="581" y="500" />
            </Array>
          </mxGeometry>
        </mxCell>
        <mxCell id="8-dyvMDe_J5ReQ0zXng_-43" style="edgeStyle=orthogonalEdgeStyle;rounded=0;orthogonalLoop=1;jettySize=auto;html=1;exitX=1;exitY=0.5;exitDx=0;exitDy=0;entryX=-0.009;entryY=0.47;entryDx=0;entryDy=0;entryPerimeter=0;" edge="1" parent="1" source="8-dyvMDe_J5ReQ0zXng_-39" target="8-dyvMDe_J5ReQ0zXng_-34">
          <mxGeometry relative="1" as="geometry" />
        </mxCell>
        <mxCell id="8-dyvMDe_J5ReQ0zXng_-44" value="SLL(2)" style="rounded=0;whiteSpace=wrap;html=1;" vertex="1" parent="1">
          <mxGeometry x="600" y="560" width="70" height="60" as="geometry" />
        </mxCell>
        <mxCell id="8-dyvMDe_J5ReQ0zXng_-45" value="" style="endArrow=classic;html=1;rounded=0;exitX=0.999;exitY=0.938;exitDx=0;exitDy=0;exitPerimeter=0;entryX=0;entryY=0.5;entryDx=0;entryDy=0;" edge="1" parent="1" source="8-dyvMDe_J5ReQ0zXng_-2" target="8-dyvMDe_J5ReQ0zXng_-44">
          <mxGeometry width="50" height="50" relative="1" as="geometry">
            <mxPoint x="430" y="620" as="sourcePoint" />
            <mxPoint x="480" y="570" as="targetPoint" />
            <Array as="points">
              <mxPoint x="560" y="620" />
              <mxPoint x="560" y="590" />
            </Array>
          </mxGeometry>
        </mxCell>
        <mxCell id="8-dyvMDe_J5ReQ0zXng_-46" style="edgeStyle=orthogonalEdgeStyle;rounded=0;orthogonalLoop=1;jettySize=auto;html=1;exitX=1;exitY=0.5;exitDx=0;exitDy=0;entryX=-0.005;entryY=0.844;entryDx=0;entryDy=0;entryPerimeter=0;" edge="1" parent="1" source="8-dyvMDe_J5ReQ0zXng_-44" target="8-dyvMDe_J5ReQ0zXng_-34">
          <mxGeometry relative="1" as="geometry" />
        </mxCell>
        <mxCell id="8-dyvMDe_J5ReQ0zXng_-52" style="edgeStyle=orthogonalEdgeStyle;rounded=0;orthogonalLoop=1;jettySize=auto;html=1;exitX=1;exitY=0.5;exitDx=0;exitDy=0;entryX=0;entryY=0.5;entryDx=0;entryDy=0;" edge="1" parent="1" source="8-dyvMDe_J5ReQ0zXng_-47" target="8-dyvMDe_J5ReQ0zXng_-48">
          <mxGeometry relative="1" as="geometry" />
        </mxCell>
        <mxCell id="8-dyvMDe_J5ReQ0zXng_-47" value="&lt;font style=&quot;font-size: 32px;&quot;&gt;+&lt;/font&gt;" style="rounded=0;whiteSpace=wrap;html=1;" vertex="1" parent="1">
          <mxGeometry x="860" y="465" width="70" height="120" as="geometry" />
        </mxCell>
        <mxCell id="8-dyvMDe_J5ReQ0zXng_-53" style="edgeStyle=orthogonalEdgeStyle;rounded=0;orthogonalLoop=1;jettySize=auto;html=1;exitX=1;exitY=0.5;exitDx=0;exitDy=0;entryX=0;entryY=0.5;entryDx=0;entryDy=0;" edge="1" parent="1" source="8-dyvMDe_J5ReQ0zXng_-48" target="h4NHF7Ot1MqrdLHm9ps6-8">
          <mxGeometry relative="1" as="geometry" />
        </mxCell>
        <mxCell id="8-dyvMDe_J5ReQ0zXng_-48" value="SLRA(1)" style="rounded=0;whiteSpace=wrap;html=1;" vertex="1" parent="1">
          <mxGeometry x="950" y="495" width="70" height="60" as="geometry" />
        </mxCell>
        <mxCell id="8-dyvMDe_J5ReQ0zXng_-49" value="" style="endArrow=classic;html=1;rounded=0;exitX=1.001;exitY=0.843;exitDx=0;exitDy=0;exitPerimeter=0;entryX=-0.01;entryY=0.71;entryDx=0;entryDy=0;entryPerimeter=0;" edge="1" parent="1" source="8-dyvMDe_J5ReQ0zXng_-34" target="8-dyvMDe_J5ReQ0zXng_-47">
          <mxGeometry width="50" height="50" relative="1" as="geometry">
            <mxPoint x="760" y="530" as="sourcePoint" />
            <mxPoint x="810" y="480" as="targetPoint" />
            <Array as="points">
              <mxPoint x="830" y="590" />
              <mxPoint x="830" y="550" />
            </Array>
          </mxGeometry>
        </mxCell>
        <mxCell id="8-dyvMDe_J5ReQ0zXng_-50" value="" style="endArrow=classic;html=1;rounded=0;exitX=1.005;exitY=0.465;exitDx=0;exitDy=0;exitPerimeter=0;entryX=0;entryY=0.375;entryDx=0;entryDy=0;entryPerimeter=0;" edge="1" parent="1" source="8-dyvMDe_J5ReQ0zXng_-34" target="8-dyvMDe_J5ReQ0zXng_-47">
          <mxGeometry width="50" height="50" relative="1" as="geometry">
            <mxPoint x="770" y="580" as="sourcePoint" />
            <mxPoint x="820" y="530" as="targetPoint" />
            <Array as="points">
              <mxPoint x="830" y="469" />
              <mxPoint x="830" y="510" />
            </Array>
          </mxGeometry>
        </mxCell>
        <mxCell id="8-dyvMDe_J5ReQ0zXng_-51" value="" style="endArrow=classic;html=1;rounded=0;exitX=0.995;exitY=0.09;exitDx=0;exitDy=0;exitPerimeter=0;entryX=0;entryY=0.5;entryDx=0;entryDy=0;" edge="1" parent="1" source="8-dyvMDe_J5ReQ0zXng_-34" target="h4NHF7Ot1MqrdLHm9ps6-2">
          <mxGeometry width="50" height="50" relative="1" as="geometry">
            <mxPoint x="810" y="500" as="sourcePoint" />
            <mxPoint x="860" y="450" as="targetPoint" />
          </mxGeometry>
        </mxCell>
        <mxCell id="8-dyvMDe_J5ReQ0zXng_-60" value="" style="shape=waypoint;sketch=0;fillStyle=solid;size=6;pointerEvents=1;points=[];fillColor=none;resizable=0;rotatable=0;perimeter=centerPerimeter;snapToPoint=1;" vertex="1" parent="1">
          <mxGeometry x="480" y="210" width="20" height="20" as="geometry" />
        </mxCell>
        <mxCell id="8-dyvMDe_J5ReQ0zXng_-61" value="" style="shape=waypoint;sketch=0;fillStyle=solid;size=6;pointerEvents=1;points=[];fillColor=none;resizable=0;rotatable=0;perimeter=centerPerimeter;snapToPoint=1;" vertex="1" parent="1">
          <mxGeometry x="480" y="690" width="20" height="20" as="geometry" />
        </mxCell>
      </root>
    </mxGraphModel>
  </diagram>
</mxfile>
